<?xml version="1.0" encoding="UTF-8"?>
<svg version="1.1" xmlns="http://www.w3.org/2000/svg" width="1024" height="1024">
<path d="M0 0 C337.92 0 675.84 0 1024 0 C1024 337.92 1024 675.84 1024 1024 C686.08 1024 348.16 1024 0 1024 C0 686.08 0 348.16 0 0 Z " fill="#FCFCFC" transform="translate(0,0)"/>
<path d="M0 0 C5.32915805 0.00513176 10.65830986 0.00034962 15.98746824 -0.00277233 C24.91852149 -0.00638821 33.84954141 -0.00167258 42.78058958 0.00790882 C53.07140128 0.01882223 63.36213389 0.01523728 73.65294373 0.00425601 C82.54190243 -0.0048452 91.43083745 -0.00608931 100.3197993 -0.00086665 C105.60610604 0.00223322 110.89237567 0.00271675 116.17867994 -0.00393963 C121.14148973 -0.00975517 126.10419811 -0.00563994 131.06699705 0.00584888 C132.87687465 0.00847166 134.68676093 0.00777166 136.49663496 0.00332355 C167.26976813 -0.06528521 188.85935116 8.49674512 210.79084349 30.01865101 C213.8918364 33.19886637 216.83177497 36.4854088 219.72443724 39.85458851 C222.6192965 43.13719957 225.61097076 46.32502631 228.60334349 49.51865101 C233.11654215 54.33988287 237.62808596 59.16213422 242.10334349 64.01865101 C243.41045286 65.43404163 243.41045286 65.43404163 244.74396849 66.87802601 C247.46083568 69.95714216 248.77449192 71.63783846 249.29084349 75.76865101 C248.85334349 79.26865101 248.85334349 79.26865101 247.03743792 80.96485329 C242.21784858 82.93834049 237.62991881 82.67076129 232.47033262 82.62941456 C230.72433113 82.63325947 230.72433113 82.63325947 228.94305688 82.63718206 C225.71617185 82.6412683 222.48964855 82.63189592 219.2628063 82.61684787 C215.78160756 82.60389041 212.30042564 82.60827676 208.81920958 82.6105547 C202.78911612 82.61212762 196.75912007 82.60271649 190.72905111 82.58584118 C182.01060402 82.56145825 173.29220401 82.55364664 164.57372651 82.5498772 C150.42854284 82.54331161 136.28341108 82.52334751 122.1382556 82.49496937 C108.39769834 82.4674316 94.65715519 82.44619664 80.91657591 82.43344593 C80.06958278 82.43265776 79.22258966 82.43186959 78.34993007 82.43105754 C74.10080709 82.42714242 69.85168402 82.42335129 65.60256088 82.41962183 C30.35278475 82.38852255 -4.8969311 82.33568381 -40.14665651 82.26865101 C-40.28692263 83.04716419 -40.42718874 83.82567738 -40.57170534 84.62778187 C-41.20511475 87.53716171 -42.22633986 89.3371362 -43.83415651 91.83115101 C-46.75068612 96.52265687 -49.22593222 101.33385342 -51.66228151 106.28818226 C-54.70521296 112.3980683 -58.06482033 118.33643132 -61.39665651 124.29208851 C-66.23126953 132.94441184 -70.94730275 141.64283339 -75.52971315 150.43149281 C-78.03173413 155.21005189 -80.62219035 159.9188435 -83.33415651 164.58115101 C-85.8426347 168.9148837 -88.18933086 173.27421685 -90.39665651 177.76865101 C-93.81906491 184.72162518 -97.50827144 191.51052368 -101.23796511 198.3028307 C-104.1238919 203.55988285 -106.98988514 208.82635686 -109.82243776 214.11240101 C-110.43852907 215.26192249 -111.05462038 216.41144398 -111.68938112 217.59579945 C-112.87829181 219.81678917 -114.06541157 222.03873887 -115.25041628 224.26181507 C-118.29232705 229.93909962 -121.46100861 235.4961524 -124.80681276 240.99911976 C-126.70538466 244.21506807 -128.34365937 247.52913005 -129.95915651 250.89365101 C-132.7238495 256.54189042 -135.65349259 262.05776388 -138.77165651 267.51865101 C-142.46674112 273.99465331 -145.87387388 280.56805919 -149.14665651 287.26865101 C-151.62165651 292.21865101 -151.62165651 292.21865101 -154.14665651 297.26865101 C-185.49665651 297.26865101 -216.84665651 297.26865101 -249.14665651 297.26865101 C-250.31377872 291.43303996 -248.99856321 289.41101644 -246.08415651 284.64365101 C-245.30054557 283.31875587 -244.51801671 281.99322021 -243.73650026 280.66708851 C-243.32069704 279.96817493 -242.90489382 279.26926136 -242.4764905 278.54916859 C-239.92879875 274.18016022 -237.5471466 269.7196924 -235.14665651 265.26865101 C-234.62466677 264.3012096 -234.10267702 263.3337682 -233.5648694 262.33701038 C-232.49380434 260.35061811 -231.42292326 258.36412662 -230.35222292 256.37753773 C-222.0948482 241.06765337 -222.0948482 241.06765337 -218.27165651 234.64365101 C-215.91504262 230.68130509 -213.80758986 226.6552974 -211.77165651 222.51865101 C-206.96899042 212.76222371 -201.63656519 203.29274266 -195.95915651 194.01865101 C-193.92644593 190.67326357 -192.12034173 187.28324037 -190.39665651 183.76865101 C-186.69036238 176.22093744 -182.55983374 168.92052972 -178.44792604 161.58896351 C-176.4037671 157.94399417 -174.36685702 154.29502151 -172.33415651 150.64365101 C-171.72857912 149.55600452 -171.72857912 149.55600452 -171.11076784 148.44638538 C-166.98498333 141.01438169 -162.95273211 133.53218668 -158.91545534 126.05185413 C-155.32811814 119.41658878 -151.68775545 112.81554485 -147.94914675 106.26425648 C-145.89427902 102.6532802 -143.97285852 99.00045512 -142.14665651 95.26865101 C-141.48665651 95.26865101 -140.82665651 95.26865101 -140.14665651 95.26865101 C-139.97009523 94.16964466 -139.97009523 94.16964466 -139.78996706 93.04843616 C-139.14427736 90.25837054 -138.25246855 88.27754999 -136.85368776 85.79208851 C-136.39115602 84.96185169 -135.92862429 84.13161488 -135.45207644 83.27621937 C-134.71308107 81.97309803 -134.71308107 81.97309803 -133.95915651 80.64365101 C-132.95125333 78.84031627 -131.94344005 77.03693129 -130.93571901 75.23349476 C-130.45135378 74.37223988 -129.96698854 73.51098499 -129.46794558 72.62363148 C-127.90056236 69.83002865 -126.362309 67.02138379 -124.83415651 64.20615101 C-122.48586071 59.8895043 -120.13229191 55.57575038 -117.77678347 51.26303577 C-116.71449741 49.31171954 -115.65680828 47.35789155 -114.60442019 45.40121937 C-104.22000328 26.12294803 -94.87411309 11.40303974 -73.14665651 4.26865101 C-49.86362623 -2.17819486 -23.93434682 -0.03032848 0 0 Z " fill="#010101" transform="translate(593.1466565132141,354.73134899139404)"/>
<path d="M0 0 C0.90136185 -0.00708481 1.80272369 -0.01416962 2.73139954 -0.02146912 C3.72309143 -0.0189917 4.71478333 -0.01651428 5.73652649 -0.01396179 C6.77896011 -0.01907272 7.82139374 -0.02418365 8.89541626 -0.02944946 C12.35724053 -0.04340036 15.81886682 -0.04238397 19.28071594 -0.04008484 C21.68247553 -0.04396994 24.08423443 -0.04830422 26.48599243 -0.05307007 C31.52916181 -0.06054497 36.57226121 -0.06023268 41.61543274 -0.05497742 C48.07401615 -0.04919388 54.53231175 -0.06608085 60.99084759 -0.08932209 C65.955441 -0.1040689 70.91996536 -0.1049296 75.8845768 -0.10181236 C78.26517619 -0.10232552 80.64577946 -0.10756213 83.02635765 -0.11762428 C86.3609254 -0.12998358 89.69493615 -0.12319854 93.02949524 -0.11161804 C94.01106598 -0.11926178 94.99263672 -0.12690552 96.00395203 -0.13478088 C103.12856176 -0.08019173 107.98448894 0.90162259 113.51899719 5.69819641 C117.7811259 10.69097576 118.15786372 14.4890946 118.03657532 20.95161438 C117.4727887 26.60365864 115.54510524 31.57433849 113.45649719 36.82319641 C112.78312317 38.56923157 112.78312317 38.56923157 112.09614563 40.35054016 C100.09615292 71.0309339 86.02299202 101.45586879 66.70649719 128.26069641 C66.08001282 129.15530579 65.45352844 130.04991516 64.80805969 130.97163391 C60.80500271 136.62021629 56.55388063 141.84091638 51.85493469 146.92475891 C49.93278764 149.01465698 48.09725947 151.1515985 46.26899719 153.32319641 C33.93628695 167.36956343 18.13029364 177.64941588 1.70649719 186.26069641 C1.08565247 186.60100891 0.46480774 186.94132141 -0.17485046 187.29194641 C-5.51975885 190.12961667 -10.96101532 191.82430812 -16.79350281 193.38569641 C-18.11221375 193.76274719 -18.11221375 193.76274719 -19.45756531 194.14741516 C-34.35450814 198.20057197 -49.2836163 198.56056697 -64.60527039 198.55122375 C-66.59288786 198.55722251 -68.58050304 198.56403111 -70.56811523 198.57157898 C-75.91431884 198.58908758 -81.26045827 198.59392728 -86.60668778 198.59521055 C-89.94962803 198.59663886 -93.29255227 198.60092077 -96.63548851 198.60620499 C-108.30348615 198.62463958 -119.97143835 198.63288195 -131.63945007 198.63130188 C-142.51317516 198.63009519 -153.38670346 198.65131715 -164.26037866 198.68278921 C-173.61269718 198.70889344 -182.96495104 198.71967198 -192.31730574 198.71839106 C-197.89686811 198.71788065 -203.4762544 198.72361068 -209.05578041 198.74474716 C-214.28855914 198.76403629 -219.5209917 198.76431842 -224.75378227 198.7497139 C-226.6763217 198.74761459 -228.59888234 198.7523929 -230.52138519 198.76443481 C-233.1385714 198.77977214 -235.75454575 198.77065737 -238.3717041 198.75517273 C-239.13802322 198.76545986 -239.90434233 198.77574698 -240.69388324 198.78634584 C-243.99497823 198.742956 -245.81446382 198.69800874 -248.30424023 196.42510414 C-249.69021798 193.39272324 -249.12033079 191.43020368 -248.29350281 188.26069641 C-247.79850281 187.27069641 -247.79850281 187.27069641 -247.29350281 186.26069641 C-246.63350281 186.26069641 -245.97350281 186.26069641 -245.29350281 186.26069641 C-245.05373718 185.43569641 -244.81397156 184.61069641 -244.56694031 183.76069641 C-243.07023833 179.64706153 -241.08742302 176.05081263 -238.91850281 172.26069641 C-238.01907691 170.667504 -237.12068728 169.07372624 -236.22319031 167.47944641 C-235.74849304 166.6376886 -235.27379578 165.79593079 -234.78471375 164.92866516 C-231.65810751 159.33476323 -228.62356975 153.6897554 -225.58110046 148.04975891 C-215.66196705 129.76464187 -215.66196705 129.76464187 -212.29350281 127.26069641 C-209.75693507 126.96645583 -207.46345704 126.85383351 -204.92655945 126.87593079 C-204.17796158 126.87055801 -203.42936371 126.86518524 -202.65808105 126.85964966 C-201.02939497 126.84985973 -199.40065665 126.84693118 -197.77194405 126.8500061 C-195.17418033 126.85449738 -192.57709352 126.84043741 -189.97940063 126.8216095 C-184.43827947 126.78478384 -178.89722815 126.77115904 -173.35600281 126.76069641 C-166.98677584 126.74852672 -160.61787521 126.72629918 -154.24879265 126.68069458 C-151.72563728 126.6673918 -149.20292349 126.67125052 -146.67974854 126.67610168 C-138.219821 126.64838797 -129.98724513 126.13765395 -121.61161804 124.90327454 C-120.39882848 124.72513088 -120.39882848 124.72513088 -119.16153812 124.54338837 C-88.08634933 119.53970784 -63.20435992 95.77622614 -45.29350281 71.26069641 C-44.89824402 70.72090149 -44.50298523 70.18110657 -44.0957489 69.62495422 C-29.45297184 49.44282749 -18.42263161 26.93992017 -7.54423523 4.57783508 C-5.47062666 0.73621515 -4.22744822 0.01104834 0 0 Z " fill="#0A4A47" transform="translate(716.2935028076172,453.7393035888672)"/>
<path d="M0 0 C2.625 0.1875 2.625 0.1875 5.625 2.1875 C5.9992218 4.90670776 5.9992218 4.90670776 5.99731445 8.40966797 C6.00354324 9.71797577 6.00977203 11.02628357 6.01618958 12.37423706 C6.00749997 13.80939105 5.99818181 15.24454135 5.98828125 16.6796875 C5.9877627 18.14698282 5.98828019 19.61427885 5.98979187 21.08157349 C5.98970207 24.16011905 5.97925875 27.2384032 5.96118164 30.31689453 C5.93853389 34.26024334 5.93794222 38.20320866 5.94469929 42.14660454 C5.94804426 45.17838946 5.94139859 48.21008724 5.93157005 51.24185562 C5.92772386 52.69549223 5.92656743 54.14913856 5.9281559 55.60277939 C5.92852748 57.63738939 5.9144104 59.67198642 5.8996582 61.70654297 C5.89505081 62.86411102 5.89044342 64.02167908 5.88569641 65.21432495 C5.62791407 68.15426581 5.28721611 69.77577886 3.625 72.1875 C1.14191747 73.78293854 -1.27263296 75.1943438 -3.875 76.5625 C-5.24050422 77.2977715 -6.60507447 78.03477992 -7.96875 78.7734375 C-8.6807959 79.15806152 -9.3928418 79.54268555 -10.12646484 79.93896484 C-13.38086524 81.74602278 -16.55675029 83.67610495 -19.74121094 85.60302734 C-24.37929758 88.39327413 -29.06923154 91.09469625 -33.75 93.8125 C-41.93351298 98.57557984 -50.08560384 103.38466622 -58.19458008 108.2734375 C-63.66066756 111.5660127 -69.14056898 114.83454133 -74.62890625 118.08984375 C-75.35278534 118.51921738 -76.07666443 118.948591 -76.82247925 119.39097595 C-80.46423362 121.55057879 -84.10679654 123.7088096 -87.75 125.8659668 C-89.09506131 126.66323313 -90.44011379 127.46051436 -91.78515625 128.2578125 C-92.71661217 128.80857704 -92.71661217 128.80857704 -93.66688538 129.37046814 C-96.28129448 130.92088655 -98.84500454 132.50083636 -101.375 134.1875 C-86.18953346 143.74473997 -86.18953346 143.74473997 -70.375 152.1875 C-70.375 152.8475 -70.375 153.5075 -70.375 154.1875 C-69.50875 154.44708496 -68.6425 154.70666992 -67.75 154.97412109 C-64.31948338 156.20745932 -61.49403511 157.72228417 -58.375 159.6015625 C-57.24715088 160.27646729 -56.11930176 160.95137207 -54.95727539 161.64672852 C-53.76317669 162.36864093 -52.56908502 163.09056497 -51.375 163.8125 C-49.54019956 164.91289216 -47.70412389 166.0111335 -45.86793518 167.10920715 C-44.66787675 167.82698332 -43.46819595 168.54539123 -42.26890564 169.26445007 C-36.98542782 172.43032485 -31.6521417 175.49549489 -26.29296875 178.53125 C-22.28469684 180.80636016 -18.3055547 183.12966732 -14.33203125 185.46484375 C-12.27701575 186.66201923 -10.21098989 187.84041279 -8.13671875 189.00390625 C-7.08097656 189.60074219 -6.02523437 190.19757813 -4.9375 190.8125 C-3.99003906 191.34101562 -3.04257812 191.86953125 -2.06640625 192.4140625 C1.0087803 194.44038281 3.2419546 196.36727555 5.625 199.1875 C6.24645996 202.30543518 6.24645996 202.30543518 6.24023438 205.84204102 C6.24578339 206.48983521 6.2513324 207.13762939 6.25704956 207.80505371 C6.26880815 209.93460352 6.24461732 212.06200715 6.21875 214.19140625 C6.21703796 215.67683312 6.21710553 217.16226301 6.21887207 218.64768982 C6.21722109 221.75557496 6.19856353 224.86273678 6.16699219 227.97045898 C6.12727978 231.95086406 6.12295209 235.93032399 6.13045502 239.91088963 C6.13352643 242.97617732 6.12139885 246.04125313 6.10432434 249.10648918 C6.09730203 250.57407235 6.09416888 252.04167953 6.09501648 253.50927925 C6.09321568 255.56074456 6.07181382 257.61108342 6.04492188 259.66235352 C6.03650269 260.82863785 6.0280835 261.99492218 6.01940918 263.19654846 C5.59215259 266.43659416 4.81746456 267.81886012 2.625 270.1875 C-3.29528891 269.75375133 -6.87135569 268.0329582 -11.75 264.75 C-13.17446375 263.82609053 -14.60028778 262.90427551 -16.02734375 261.984375 C-16.75163574 261.51451172 -17.47592773 261.04464844 -18.22216797 260.56054688 C-21.53295176 258.44897418 -24.91748243 256.47225365 -28.3125 254.5 C-45.04073752 244.73000782 -61.60001736 234.67432155 -78.15072632 224.60742188 C-87.43668462 218.95947061 -96.75152837 213.36120464 -106.07983398 207.78344727 C-114.65910323 202.6421415 -123.16843996 197.39144305 -131.66918945 192.12158203 C-140.24845956 186.82512623 -148.93802162 181.73543912 -157.72485352 176.79077148 C-164.76031789 172.77007197 -169.8929389 169.54204689 -172.74925232 161.59712219 C-173.95185088 156.96616907 -173.82190693 152.2892846 -173.80859375 147.53125 C-173.8138356 146.42954468 -173.81907745 145.32783936 -173.82447815 144.19274902 C-173.83087588 141.8731368 -173.82959067 139.55349203 -173.82104492 137.23388672 C-173.81252603 133.69830286 -173.84134454 130.16433124 -173.87304688 126.62890625 C-173.87465896 124.36718798 -173.87408123 122.10546687 -173.87109375 119.84375 C-173.88232773 118.79457397 -173.89356171 117.74539795 -173.90513611 116.66442871 C-173.83035987 108.73614083 -172.3850246 103.17571283 -166.6796875 97.51171875 C-162.85138539 94.63869428 -158.67040414 92.33253443 -154.5 90 C-148.54694138 86.61360101 -142.65480041 83.17454441 -136.875 79.5 C-126.30119104 72.80325433 -115.48453403 66.50608097 -104.70361328 60.15087891 C-101.66371629 58.35779899 -98.62614826 56.56087324 -95.58984375 54.76171875 C-74.18829619 42.08357604 -52.67940673 29.60096107 -31.05859375 17.30078125 C-25.68868374 14.23003218 -20.34576004 11.11251941 -15 8 C-13.89527344 7.35869141 -12.79054688 6.71738281 -11.65234375 6.05664062 C-10.08033203 5.14108398 -10.08033203 5.14108398 -8.4765625 4.20703125 C-7.52088379 3.65120361 -6.56520508 3.09537598 -5.58056641 2.52270508 C-1.62538734 0.12832005 -1.62538734 0.12832005 0 0 Z " fill="#010101" transform="translate(336.375,376.8125)"/>
<path d="M0 0 C0.66 0.33 1.32 0.66 2 1 C4.61948722 1.10779765 7.21309866 1.15490023 9.83328247 1.15821838 C11.06091145 1.16562535 11.06091145 1.16562535 12.31334102 1.17318195 C15.07103382 1.18860831 17.82870325 1.19693143 20.58642578 1.20532227 C22.55714119 1.21489676 24.52785453 1.22490658 26.49856567 1.23532104 C31.86189934 1.26242268 37.22524185 1.28340372 42.58860636 1.30332303 C48.18871592 1.32515022 53.78879805 1.35255485 59.3888855 1.37937927 C69.99942771 1.42935044 80.60998511 1.47427282 91.22055709 1.51740164 C103.29777995 1.56673626 115.3749753 1.62166836 127.45217156 1.67708123 C152.30142205 1.79096917 177.15069892 1.89779333 202 2 C202 2.33 202 2.66 202 3 C135.34 3 68.68 3 0 3 C0 2.01 0 1.02 0 0 Z " fill="#184542" transform="translate(470,649)"/>
<path d="M0 0 C0.66 0.33 1.32 0.66 2 1 C4.47072509 1.12209616 6.91517208 1.18562086 9.38720703 1.20532227 C10.52881287 1.22017166 10.52881287 1.22017166 11.69348145 1.23532104 C14.21489324 1.26696678 16.73632388 1.29170557 19.2578125 1.31640625 C21.00373836 1.33697313 22.74965922 1.35796953 24.49557495 1.37937927 C29.09539742 1.43462746 33.69526503 1.4840246 38.29516602 1.53222656 C42.98718289 1.58242155 47.67913405 1.63811805 52.37109375 1.69335938 C61.58067306 1.80097454 70.79030937 1.90241204 80 2 C80 2.33 80 2.66 80 3 C79.00885696 3.00142502 78.01771393 3.00285004 76.99653625 3.00431824 C67.65311771 3.02099219 58.31013448 3.06377778 48.9669466 3.13209057 C44.16352922 3.16637261 39.36043028 3.19147243 34.55688477 3.19555664 C29.92059119 3.199837 25.28501614 3.22827767 20.64894676 3.27343178 C18.88078179 3.28641522 17.11253087 3.29071145 15.34432411 3.28615379 C12.86588719 3.28125358 10.38955503 3.30731118 7.91137695 3.34057617 C7.18129425 3.33195053 6.45121155 3.32332489 5.69900513 3.31443787 C1.66942291 3.4050285 0.12877799 3.89071408 -2.99446106 6.54121399 C-3.65628891 7.35261337 -4.31811676 8.16401276 -5 9 C-5.33 7.35 -5.66 5.7 -6 4 C-4.02 2.68 -2.04 1.36 0 0 Z " fill="#EDFEFE" transform="translate(504,578)"/>
<path d="M0 0 C0.33 0.99 0.66 1.98 1 3 C-12.6862442 15.01545595 -12.6862442 15.01545595 -19 20 C-19.928125 20.7425 -20.85625 21.485 -21.8125 22.25 C-22.534375 22.8275 -23.25625 23.405 -24 24 C-24.66 23.34 -25.32 22.68 -26 22 C-25.10539063 21.31035156 -24.21078125 20.62070312 -23.2890625 19.91015625 C-15.18988043 13.62913499 -7.2593515 7.2593515 0 0 Z " fill="#DCEDED" transform="translate(763,606)"/>
<path d="M0 0 C0.66 0.33 1.32 0.66 2 1 C1.34 1.66 0.68 2.32 0 3 C0.33 3.66 0.66 4.32 1 5 C-1.23005002 5.57816112 -3.4107745 6.06687027 -5.6875 6.4375 C-6.8321875 6.7159375 -6.8321875 6.7159375 -8 7 C-8.67094978 8.34189957 -9.31667586 9.69668689 -9.9375 11.0625 C-11 13 -11 13 -13 14 C-15.625 13.0625 -15.625 13.0625 -18 12 C-14.28638882 8.91345262 -10.41216557 6.22715693 -6.3125 3.6875 C-5.73177734 3.31560547 -5.15105469 2.94371094 -4.55273438 2.56054688 C-3.07348 1.64221208 -1.53970802 0.81291542 0 0 Z " fill="#DCDCDC" transform="translate(268,490)"/>
<path d="M0 0 C0.99 0.33 1.98 0.66 3 1 C2.2575 1.70125 1.515 2.4025 0.75 3.125 C-1.93113225 5.9280019 -3.9364423 8.72677055 -6 12 C-6.66 12.99 -7.32 13.98 -8 15 C-8.94721072 12.39517051 -9.30222393 10.69325299 -8.17578125 8.109375 C-7.17063275 6.37417127 -6.0893855 4.68359577 -5 3 C-4.01 3 -3.02 3 -2 3 C-1.67 2.34 -1.34 1.68 -1 1 C-0.67 0.67 -0.34 0.34 0 0 Z " fill="#EDEDED" transform="translate(171,470)"/>
<path d="M0 0 C0.66 0.33 1.32 0.66 2 1 C3.3734635 1.15004973 4.7528526 1.24838006 6.1328125 1.31640625 C6.93847656 1.35830078 7.74414062 1.40019531 8.57421875 1.44335938 C9.41597656 1.48267578 10.25773438 1.52199219 11.125 1.5625 C12.39923828 1.62727539 12.39923828 1.62727539 13.69921875 1.69335938 C15.79928223 1.79954236 17.89961948 1.90028497 20 2 C20 2.33 20 2.66 20 3 C19.13048706 3.00616333 19.13048706 3.00616333 18.2434082 3.01245117 C15.59875891 3.04549277 12.95638161 3.11614264 10.3125 3.1875 C9.40048828 3.19330078 8.48847656 3.19910156 7.54882812 3.20507812 C1.61766523 3.34851722 1.61766523 3.34851722 -3.14453125 6.55078125 C-3.75683594 7.35902344 -4.36914062 8.16726563 -5 9 C-5.33 7.35 -5.66 5.7 -6 4 C-4.02 2.68 -2.04 1.36 0 0 Z " fill="#EDFBFB" transform="translate(504,578)"/>
<path d="M0 0 C2 2 2 2 2.125 5.625 C2.08375 6.73875 2.0425 7.8525 2 9 C1.01 9 0.02 9 -1 9 C-3.68767578 11.43750025 -3.68767578 11.43750025 -6 14 C-6 10.27792613 -4.82035432 8.53604411 -3 5.3125 C-2.443125 4.31863281 -1.88625 3.32476563 -1.3125 2.30078125 C-0.879375 1.54152344 -0.44625 0.78226563 0 0 Z " fill="#E5F1F2" transform="translate(803,548)"/>
<path d="M0 0 C1.07723233 3.231697 1.1735237 3.93078417 0 7 C-2.30575443 10.33936849 -4.19197555 12.5039904 -8 14 C-6.81543972 10.8411726 -5.46399962 7.78725295 -4 4.75 C-3.67 4.06421875 -3.34 3.3784375 -3 2.671875 C-2 1 -2 1 0 0 Z " fill="#E9E9E9" transform="translate(518,505)"/>
<path d="M0 0 C0.33 0.99 0.66 1.98 1 3 C1.66 3 2.32 3 3 3 C2.875 6.25 2.875 6.25 2 10 C-1.0625 12.4375 -1.0625 12.4375 -4 14 C-4.66 13.34 -5.32 12.68 -6 12 C-4.68 11.34 -3.36 10.68 -2 10 C-1.73067479 5.34947128 -1.73067479 5.34947128 -3 1 C-2.01 0.67 -1.02 0.34 0 0 Z " fill="#D8D8D8" transform="translate(843,424)"/>
<path d="M0 0 C0.33 0.99 0.66 1.98 1 3 C-1.3125 6.1875 -1.3125 6.1875 -4 9 C-4.66 9 -5.32 9 -6 9 C-6 9.99 -6 10.98 -6 12 C-7.32 12.33 -8.64 12.66 -10 13 C-10.33 12.01 -10.66 11.02 -11 10 C-10.45730469 9.52949219 -9.91460938 9.05898438 -9.35546875 8.57421875 C-8.64003906 7.95160156 -7.92460938 7.32898438 -7.1875 6.6875 C-6.47980469 6.07261719 -5.77210938 5.45773437 -5.04296875 4.82421875 C-3.29863261 3.26665665 -1.63221959 1.67341125 0 0 Z " fill="#1B4E4A" transform="translate(653,546)"/>
<path d="M0 0 C0.33 0.66 0.66 1.32 1 2 C-0.07518118 4.44332726 -1.19808566 6.76754523 -2.4375 9.125 C-2.77587891 9.78371094 -3.11425781 10.44242187 -3.46289062 11.12109375 C-4.30149926 12.75106547 -5.14984811 14.37601909 -6 16 C-7.0859375 14.234375 -7.0859375 14.234375 -8 12 C-6.625 8.25 -6.625 8.25 -5 5 C-4.34 5 -3.68 5 -3 5 C-3 4.01 -3 3.02 -3 2 C-2.01 1.34 -1.02 0.68 0 0 Z " fill="#E0EEEF" transform="translate(706,462)"/>
<path d="M0 0 C0.66 0.33 1.32 0.66 2 1 C1.42365861 5.75481646 -0.55068521 8.97048212 -3 13 C-3.33 12.34 -3.66 11.68 -4 11 C-4.66 11 -5.32 11 -6 11 C-5.67 10.01 -5.34 9.02 -5 8 C-4.34 8 -3.68 8 -3 8 C-2.87625 7.236875 -2.7525 6.47375 -2.625 5.6875 C-2 3 -2 3 0 0 Z " fill="#F0F0F0" transform="translate(348,632)"/>
<path d="M0 0 C0 0.99 0 1.98 0 3 C-5.75 4 -5.75 4 -8 4 C-9.485 4.309375 -9.485 4.309375 -11 4.625 C-11.99 4.74875 -12.98 4.8725 -14 5 C-14.66 4.34 -15.32 3.68 -16 3 C-14.30113211 1.30113211 -11.99994529 1.3509836 -9.6875 0.9375 C-8.23923828 0.67259766 -8.23923828 0.67259766 -6.76171875 0.40234375 C-4 0 -4 0 0 0 Z " fill="#E7F3F4" transform="translate(696,648)"/>
<path d="M0 0 C1.25 1.5625 1.25 1.5625 2 4 C0.93237266 6.57001015 -0.46544943 8.6530403 -2 11 C-4.5654594 8.4345406 -4.54046087 6.52313332 -5 3 C-3.68 3 -2.36 3 -1 3 C-0.67 2.01 -0.34 1.02 0 0 Z " fill="#E9F3F2" transform="translate(688,493)"/>
<path d="M0 0 C-0.33 1.32 -0.66 2.64 -1 4 C-1.66 4 -2.32 4 -3 4 C-3 4.99 -3 5.98 -3 7 C-5.31 6.34 -7.62 5.68 -10 5 C-7.31217681 1.88778367 -4.19734673 0 0 0 Z " fill="#EDF4F5" transform="translate(720,639)"/>
<path d="M0 0 C1.32 0.33 2.64 0.66 4 1 C-0.39251833 3.02055843 -4.15340923 4.40895235 -9 5 C-8.67 3.68 -8.34 2.36 -8 1 C-2.25 0.875 -2.25 0.875 0 2 C0 1.34 0 0.68 0 0 Z " fill="#285A55" transform="translate(709,641)"/>
<path d="M0 0 C0.99 0.33 1.98 0.66 3 1 C2.04882866 2.1725131 1.08882991 3.33787015 0.125 4.5 C-0.40867187 5.1496875 -0.94234375 5.799375 -1.4921875 6.46875 C-1.98976563 6.9740625 -2.48734375 7.479375 -3 8 C-3.66 8 -4.32 8 -5 8 C-4.66275164 4.88045262 -4.3790035 3.3790035 -2.125 1.125 C-1.42375 0.75375 -0.7225 0.3825 0 0 Z " fill="#255552" transform="translate(757,608)"/>
<path d="M0 0 C0.66 0.33 1.32 0.66 2 1 C-1.38168431 4.68006822 -4.42521756 6.9785845 -9 9 C-9.33 8.01 -9.66 7.02 -10 6 C-8.3811004 4.96951963 -6.75467511 3.95085322 -5.125 2.9375 C-4.22007812 2.36902344 -3.31515625 1.80054688 -2.3828125 1.21484375 C-1.20332031 0.61349609 -1.20332031 0.61349609 0 0 Z " fill="#191919" transform="translate(230,438)"/>
<path d="M0 0 C2.625 0.1875 2.625 0.1875 5.625 2.1875 C5.8125 4.8125 5.8125 4.8125 5.625 7.1875 C4.635 7.1875 3.645 7.1875 2.625 7.1875 C2.625 6.5275 2.625 5.8675 2.625 5.1875 C1.965 5.1875 1.305 5.1875 0.625 5.1875 C-0.035 4.1975 -0.695 3.2075 -1.375 2.1875 C-2.035 1.8575 -2.695 1.5275 -3.375 1.1875 C-2.375 0.1875 -2.375 0.1875 0 0 Z " fill="#1B1B1B" transform="translate(336.375,376.8125)"/>
<path d="M0 0 C0.66 1.32 1.32 2.64 2 4 C0.02 6.97 0.02 6.97 -2 10 C-3.32 9.67 -4.64 9.34 -6 9 C-4.02 6.03 -2.04 3.06 0 0 Z " fill="#DBEAE8" transform="translate(789,572)"/>
<path d="M0 0 C0.66 0.33 1.32 0.66 2 1 C-0.64 4.63 -3.28 8.26 -6 12 C-6.66 11.34 -7.32 10.68 -8 10 C-7.360625 9.236875 -6.72125 8.47375 -6.0625 7.6875 C-3.85767219 5.11753287 -3.85767219 5.11753287 -3 2 C-2.01 1.34 -1.02 0.68 0 0 Z " fill="#DEEEED" transform="translate(671,522)"/>
<path d="M0 0 C0.66 0.33 1.32 0.66 2 1 C1.375 2.9375 1.375 2.9375 0 5 C-3.0625 5.625 -3.0625 5.625 -6 6 C-6.33 6.66 -6.66 7.32 -7 8 C-7.66 7.34 -8.32 6.68 -9 6 C-6.03 4.02 -3.06 2.04 0 0 Z " fill="#D7D7D7" transform="translate(243,505)"/>
<path d="M0 0 C0.5859375 1.84375 0.5859375 1.84375 1 4 C-0.375 6.5 -0.375 6.5 -2 9 C-2.144375 9.721875 -2.28875 10.44375 -2.4375 11.1875 C-3 13 -3 13 -5.0625 14.25 C-5.701875 14.4975 -6.34125 14.745 -7 15 C-5.45454854 9.52067211 -2.84456788 4.88570819 0 0 Z " fill="#D8D8D8" transform="translate(506,525)"/>
<path d="M0 0 C0.99 0 1.98 0 3 0 C2.36567062 3.16451962 1.26817072 5.51687779 -0.4375 8.25 C-0.86933594 8.95640625 -1.30117188 9.6628125 -1.74609375 10.390625 C-2.36677734 11.18726563 -2.36677734 11.18726563 -3 12 C-3.66 12 -4.32 12 -5 12 C-3.68938409 7.76570244 -2.05643741 3.92592596 0 0 Z " fill="#1E4D4C" transform="translate(705,466)"/>
<path d="M0 0 C1.9375 0.3125 1.9375 0.3125 4 1 C4.33 1.99 4.66 2.98 5 4 C4.67 4.66 4.34 5.32 4 6 C4.66 6.33 5.32 6.66 6 7 C5.01 7.33 4.02 7.66 3 8 C0.9375 5.6875 0.9375 5.6875 -1 3 C-0.67 2.01 -0.34 1.02 0 0 Z " fill="#F2F2F2" transform="translate(801,378)"/>
<path d="M0 0 C0.66 0 1.32 0 2 0 C1.45463844 3.81753091 -0.19537375 5.45033977 -3 8 C-3.66 8.66 -4.32 9.32 -5 10 C-5.66 9.34 -6.32 8.68 -7 8 C-5.88200014 6.66079162 -4.75538103 5.32877444 -3.625 4 C-2.68527344 2.88625 -2.68527344 2.88625 -1.7265625 1.75 C-1.15679688 1.1725 -0.58703125 0.595 0 0 Z " fill="#DEEEEE" transform="translate(779,587)"/>
<path d="M0 0 C0.33 0 0.66 0 1 0 C1.33 1.98 1.66 3.96 2 6 C1.34 6 0.68 6 0 6 C-0.33 7.32 -0.66 8.64 -1 10 C-1.99 10 -2.98 10 -4 10 C-2.8905928 6.51329166 -1.73662334 3.22515763 0 0 Z " fill="#E4F1F0" transform="translate(813,528)"/>
<path d="M0 0 C2.00720923 0.28674418 4.0085944 0.61866701 6 1 C6.33 2.65 6.66 4.3 7 6 C3.62496331 4.8141763 1.35277269 3.72426311 -1 1 C-0.67 0.67 -0.34 0.34 0 0 Z " fill="#E3E3E3" transform="translate(239,512)"/>
<path d="M0 0 C0.66 0.33 1.32 0.66 2 1 C1.25 7.625 1.25 7.625 -1 11 C-1.66 10.67 -2.32 10.34 -3 10 C-2.01 6.7 -1.02 3.4 0 0 Z " fill="#1C504D" transform="translate(828,484)"/>
<path d="M0 0 C0.66 0.33 1.32 0.66 2 1 C1.46930939 4.82097239 0.50298434 7.06171403 -2 10 C-3.06351675 6.61608307 -3.21442982 5.4195366 -1.5625 2.1875 C-1.046875 1.465625 -0.53125 0.74375 0 0 Z " fill="#EBEBEB" transform="translate(436,472)"/>
<path d="M0 0 C0.66 0.33 1.32 0.66 2 1 C1.37240135 3.92879371 0.41377341 6.36095629 -1 9 C-1.66 8.67 -2.32 8.34 -3 8 C-2.45276317 4.62537285 -1.9451 2.91765 0 0 Z " fill="#F3F3F3" transform="translate(387,561)"/>
<path d="M0 0 C5.75 1.75 5.75 1.75 8 4 C7.67 4.66 7.34 5.32 7 6 C2.25 4.125 2.25 4.125 0 3 C0 2.01 0 1.02 0 0 Z " fill="#E2E2E2" transform="translate(294,544)"/>
<path d="M0 0 C0.66 0.33 1.32 0.66 2 1 C0.66666667 3.66666667 -0.66666667 6.33333333 -2 9 C-2.66 9 -3.32 9 -4 9 C-3.4039572 5.32440274 -2.74227152 2.74227152 0 0 Z " fill="#DFEAEC" transform="translate(483,612)"/>
<path d="M0 0 C1.32 0 2.64 0 4 0 C2.50902342 3.7952131 0.24299151 5.61042731 -3 8 C-1.125 2.25 -1.125 2.25 0 0 Z " fill="#E1EFEF" transform="translate(657,537)"/>
<path d="M0 0 C0.33 0.66 0.66 1.32 1 2 C0.22265625 4.1640625 0.22265625 4.1640625 -0.9375 6.625 C-1.31777344 7.44226563 -1.69804688 8.25953125 -2.08984375 9.1015625 C-2.39019531 9.72804688 -2.69054687 10.35453125 -3 11 C-3.33 11 -3.66 11 -4 11 C-4.042721 9.33388095 -4.04063832 7.66617115 -4 6 C-3.67 5.67 -3.34 5.34 -3 5 C-3 4.01 -3 3.02 -3 2 C-2.01 1.34 -1.02 0.68 0 0 Z " fill="#2C5859" transform="translate(816,519)"/>
<path d="M0 0 C2 3 2 3 1.875 5.5625 C1 8 1 8 -3 10 C-2.01 6.7 -1.02 3.4 0 0 Z " fill="#DBEAEA" transform="translate(829,489)"/>
<path d="M0 0 C0.66 0.33 1.32 0.66 2 1 C1 4 1 4 -1.375 5.3125 C-2.24125 5.539375 -3.1075 5.76625 -4 6 C-4.99 5.34 -5.98 4.68 -7 4 C-1.7265625 0.77734375 -1.7265625 0.77734375 0 0 Z " fill="#171717" transform="translate(185,465)"/>
<path d="M0 0 C1.53445094 3.06890187 0.54984289 5.70094266 0 9 C-0.33 8.34 -0.66 7.68 -1 7 C-1.99 7 -2.98 7 -4 7 C-3.39816251 4.97954558 -2.72693904 2.97888961 -2 1 C-1.34 0.67 -0.68 0.34 0 0 Z " fill="#174E49" transform="translate(477,629)"/>
<path d="M0 0 C0.33 1.32 0.66 2.64 1 4 C0.01 4.33 -0.98 4.66 -2 5 C-2.33 5.66 -2.66 6.32 -3 7 C-4.32 6.01 -5.64 5.02 -7 4 C-4.69 2.68 -2.38 1.36 0 0 Z " fill="#1F5450" transform="translate(627,567)"/>
<path d="M0 0 C0.66 1.32 1.32 2.64 2 4 C1.34 4 0.68 4 0 4 C-0.0825 4.78375 -0.165 5.5675 -0.25 6.375 C-1 9 -1 9 -3.0625 10.3125 C-4.0215625 10.6528125 -4.0215625 10.6528125 -5 11 C-3.55049545 7.2089881 -1.84827434 3.6125362 0 0 Z " fill="#2B2B2B" transform="translate(467,421)"/>
<path d="M0 0 C0.66 0.33 1.32 0.66 2 1 C1.67 1.99 1.34 2.98 1 4 C0.34 4 -0.32 4 -1 4 C-2.62514468 5.45833358 -2.62514468 5.45833358 -4 7 C-4.66 6.01 -5.32 5.02 -6 4 C-4.02 2.68 -2.04 1.36 0 0 Z " fill="#DCEBEB" transform="translate(735,629)"/>
<path d="M0 0 C0.66 0 1.32 0 2 0 C2 1.65 2 3.3 2 5 C1.01 5 0.02 5 -1 5 C-1 5.99 -1 6.98 -1 8 C-1.99 8.33 -2.98 8.66 -4 9 C-2.80100302 5.9168649 -1.52299523 2.93720508 0 0 Z " fill="#DFDFDF" transform="translate(485,564)"/>
<path d="M0 0 C2.6875 0.3125 2.6875 0.3125 5 1 C4.34 2.32 3.68 3.64 3 5 C1.02 4.34 -0.96 3.68 -3 3 C-1.8125 1.4375 -1.8125 1.4375 0 0 Z " fill="#E7E7E7" transform="translate(253,499)"/>
<path d="M0 0 C0.66 0.99 1.32 1.98 2 3 C1.01 4.98 0.02 6.96 -1 9 C-2.1875 7.3125 -2.1875 7.3125 -3 5 C-1.625 2.25 -1.625 2.25 0 0 Z " fill="#EDF3F4" transform="translate(476,623)"/>
<path d="M0 0 C0.66 1.32 1.32 2.64 2 4 C0.68 5.32 -0.64 6.64 -2 8 C-3 5 -3 5 -2 2 C-1.34 2 -0.68 2 0 2 C0 1.34 0 0.68 0 0 Z " fill="#E7F1F2" transform="translate(675,514)"/>
<path d="M0 0 C1.0326802 2.78823655 1.04509293 3.8677274 0.0625 6.75 C-0.288125 7.4925 -0.63875 8.235 -1 9 C-1.99 9 -2.98 9 -4 9 C-2.80100302 5.9168649 -1.52299523 2.93720508 0 0 Z " fill="#1F4D4B" transform="translate(690,495)"/>
<path d="M0 0 C1.1875 1.625 1.1875 1.625 2 4 C0.625 7.25 0.625 7.25 -1 10 C-2.1875 8.375 -2.1875 8.375 -3 6 C-1.625 2.75 -1.625 2.75 0 0 Z " fill="#F2F2F2" transform="translate(428,486)"/>
<path d="M0 0 C1.98 0.66 3.96 1.32 6 2 C4.68 2.99 3.36 3.98 2 5 C0.68 4.34 -0.64 3.68 -2 3 C-1.34 2.01 -0.68 1.02 0 0 Z " fill="#EFEFEF" transform="translate(176,465)"/>
<path d="M0 0 C1.32 0.99 2.64 1.98 4 3 C3.67 3.99 3.34 4.98 3 6 C2.01 6.33 1.02 6.66 0 7 C0 6.01 0 5.02 0 4 C-0.66 3.67 -1.32 3.34 -2 3 C-1.34 2.01 -0.68 1.02 0 0 Z " fill="#F6F6F6" transform="translate(212,442)"/>
<path d="M0 0 C2.625 0.9375 2.625 0.9375 5 2 C5 2.99 5 3.98 5 5 C2.97954558 4.39816251 0.97888961 3.72693904 -1 3 C-1.33 2.34 -1.66 1.68 -2 1 C-1.34 0.67 -0.68 0.34 0 0 Z " fill="#F3F3F3" transform="translate(299,626)"/>
<path d="M0 0 C0 0.66 0 1.32 0 2 C-2.64 2.99 -5.28 3.98 -8 5 C-8.33 4.01 -8.66 3.02 -9 2 C-8.34 1.67 -7.68 1.34 -7 1 C-7 1.66 -7 2.32 -7 3 C-6.34 3 -5.68 3 -5 3 C-5 2.34 -5 1.68 -5 1 C-3 0 -3 0 0 0 Z " fill="#E4F2F2" transform="translate(620,570)"/>
<path d="M0 0 C0.66 0.66 1.32 1.32 2 2 C-0.3125 4.0625 -0.3125 4.0625 -3 6 C-3.99 5.67 -4.98 5.34 -6 5 C-2.25 1.125 -2.25 1.125 0 0 Z " fill="#E2EFF1" transform="translate(632,561)"/>
<path d="M0 0 C0.66 0 1.32 0 2 0 C0.25 5.75 0.25 5.75 -2 8 C-2.33 6.35 -2.66 4.7 -3 3 C-2.01 2.67 -1.02 2.34 0 2 C0 1.34 0 0.68 0 0 Z " fill="#1F4D4E" transform="translate(799,551)"/>
<path d="M0 0 C2 4 2 4 2 7 C0.35 7.66 -1.3 8.32 -3 9 C-2.01 6.03 -1.02 3.06 0 0 Z " fill="#E2F1F1" transform="translate(822,507)"/>
<path d="M0 0 C1.98 0.495 1.98 0.495 4 1 C3.01 2.98 2.02 4.96 1 7 C-0.0625 5.1875 -0.0625 5.1875 -1 3 C-0.67 2.01 -0.34 1.02 0 0 Z " fill="#E5F1F2" transform="translate(693,483)"/>
<path d="M0 0 C0.66 0.33 1.32 0.66 2 1 C-2.296875 5.00390625 -2.296875 5.00390625 -4 6 C-6.203125 5.65234375 -6.203125 5.65234375 -8 5 C-6.71475739 4.13619741 -5.42157581 3.28419631 -4.125 2.4375 C-3.04605469 1.72400391 -3.04605469 1.72400391 -1.9453125 0.99609375 C-1.30335938 0.66738281 -0.66140625 0.33867187 0 0 Z " fill="#262626" transform="translate(240,432)"/>
<path d="M0 0 C0.33 0.66 0.66 1.32 1 2 C-0.65 3.98 -2.3 5.96 -4 8 C-4.66 7.67 -5.32 7.34 -6 7 C-4.02 4.69 -2.04 2.38 0 0 Z " fill="#D7E7E7" transform="translate(770,598)"/>
<path d="M0 0 C0.33 0 0.66 0 1 0 C1.3125 2.8125 1.3125 2.8125 1 6 C-1.5 7.875 -1.5 7.875 -4 9 C-2.80100302 5.9168649 -1.52299523 2.93720508 0 0 Z " fill="#DDDDDD" transform="translate(514,510)"/>
<path d="M0 0 C1.98 0.495 1.98 0.495 4 1 C4 1.99 4 2.98 4 4 C2.35 4.66 0.7 5.32 -1 6 C-0.67 4.02 -0.34 2.04 0 0 Z " fill="#F3F3F3" transform="translate(258,416)"/>
<path d="M0 0 C0.66 0.33 1.32 0.66 2 1 C1 4 1 4 -2.0625 5.6875 C-3.031875 6.120625 -4.00125 6.55375 -5 7 C-3.75023244 3.34683329 -3.32901247 2.21934164 0 0 Z " fill="#ECECEC" transform="translate(273,409)"/>
<path d="M0 0 C0.99 0.33 1.98 0.66 3 1 C2.01 1.495 2.01 1.495 1 2 C1.33 2.66 1.66 3.32 2 4 C0.35 4.66 -1.3 5.32 -3 6 C-3.33 5.01 -3.66 4.02 -4 3 C-2.1875 1.4375 -2.1875 1.4375 0 0 Z " fill="#ECECEC" transform="translate(300,393)"/>
<path d="M0 0 C0.33 0.99 0.66 1.98 1 3 C-1 5 -1 5 -3.625 5.125 C-4.40875 5.08375 -5.1925 5.0425 -6 5 C-2.25 1.125 -2.25 1.125 0 0 Z " fill="#191919" transform="translate(340,642)"/>
<path d="M0 0 C-1.15173355 2.46800047 -2.04783565 4.04783565 -4 6 C-4.33 4.35 -4.66 2.7 -5 1 C-3 0 -3 0 0 0 Z " fill="#DFEFEE" transform="translate(503,581)"/>
<path d="M0 0 C-0.3125 1.875 -0.3125 1.875 -1 4 C-1.99 4.66 -2.98 5.32 -4 6 C-4.33 5.01 -4.66 4.02 -5 3 C-2.25 0 -2.25 0 0 0 Z " fill="#E5EEEF" transform="translate(653,544)"/>
<path d="M0 0 C0.33 0 0.66 0 1 0 C1.33 2.64 1.66 5.28 2 8 C0.02 8.99 0.02 8.99 -2 10 C-1.34 6.7 -0.68 3.4 0 0 Z " fill="#DEEAEA" transform="translate(834,473)"/>
<path d="M0 0 C0.99 0.66 1.98 1.32 3 2 C1.515 4.475 1.515 4.475 0 7 C-0.66 5.68 -1.32 4.36 -2 3 C-1.34 2.01 -0.68 1.02 0 0 Z " fill="#184E49" transform="translate(709,458)"/>
</svg>
